<?xml version="1.0" encoding="UTF-8" standalone="no"?>
<!-- Created with Inkscape (http://www.inkscape.org/) -->

<svg
   width="28"
   height="28"
   viewBox="0 0 7.4083332 7.4083333"
   version="1.1"
   id="svg1"
   xml:space="preserve"
   xmlns="http://www.w3.org/2000/svg"
   xmlns:svg="http://www.w3.org/2000/svg"><defs
     id="defs1" /><g
     id="layer1"><rect
       style="fill:#333333;fill-opacity:1;stroke-width:0.363024"
       id="rect1"
       width="7.4083333"
       height="7.4083333"
       x="0"
       y="0"
       ry="1.6626534" /><path
       fill="currentColor"
       d="m 5.0462656,2.4134405 c -0.066146,0 -0.133835,0.00375 -0.1999809,0.015214 C 4.2880138,2.5095722 3.9136284,2.9223225 3.7041667,3.2387201 3.4947048,2.9223225 3.1203194,2.5095725 2.5620486,2.4286541 a 1.4331597,1.4331597 0 0 0 -0.199981,-0.015213 c -0.7198875,0 -1.3037343,0.5785557 -1.3037343,1.2907258 0,0.7121701 0.5856109,1.2907258 1.3037343,1.2907258 0.066146,0 0.1338351,-0.00375 0.2019654,-0.015214 0.5580503,-0.082903 0.9326562,-0.4954322 1.142118,-0.8120503 0.2092414,0.3166181 0.5836267,0.7291476 1.1421181,0.8120504 0.065925,0.00948 0.1338351,0.015214 0.2017448,0.015214 C 5.7643889,4.9948928 6.35,4.4163372 6.35,3.7041671 6.35,2.9919969 5.7643889,2.4134413 5.0462656,2.4134413 M 2.4981075,4.5274615 a 0.88194445,0.88194445 0 0 1 -0.1378037,0.00948 c -0.4736046,0 -0.8574704,-0.3748265 -0.8574704,-0.832776 0,-0.4597136 0.38563,-0.8327761 0.8594547,-0.8327761 q 0.068792,4.452e-4 0.1375833,0.00949 C 3.0268333,2.9580418 3.3480815,3.4911769 3.4583247,3.7041665 3.3463176,3.91892 3.0230851,4.4502916 2.4981075,4.5274617 m 2.5483787,0.00948 Q 4.9776945,4.5365015 4.9089028,4.5274617 C 4.3819409,4.4502916 4.0587084,3.9171561 3.9504496,3.7041665 4.0587084,3.4911769 4.3819409,2.9580416 4.9089028,2.8808713 q 0.068792,-0.00904 0.1375834,-0.00948 c 0.4738246,0 0.8576909,0.3748265 0.8576909,0.8327761 0,0.4597136 -0.3858507,0.8327761 -0.8576909,0.8327761 M 5.4102882,3.5659217 V 3.8159529 H 5.1446025 V 4.0765676 H 4.8897205 V 3.8159529 H 4.6235937 V 3.5659217 H 4.8895 V 3.3050864 H 5.144382 V 3.5659215 Z M 1.9945176,3.8139686 h 0.788017 V 3.5659217 H 1.9942967 v 0.2480469 z"
       id="path1"
       style="fill:#ffffff;stroke-width:0.220486" /></g></svg>
