<?xml version="1.0" encoding="UTF-8" standalone="no"?>
<!-- Created with Inkscape (http://www.inkscape.org/) -->

<svg
   width="28"
   height="28"
   viewBox="0 0 7.4083332 7.4083333"
   version="1.1"
   id="svg1"
   xml:space="preserve"
   xmlns:xlink="http://www.w3.org/1999/xlink"
   xmlns="http://www.w3.org/2000/svg"
   xmlns:svg="http://www.w3.org/2000/svg"><defs
     id="defs1"><linearGradient
       id="linearGradient1"><stop
         style="stop-color:#00255e;stop-opacity:1;"
         offset="0"
         id="stop1" /><stop
         style="stop-color:#0061eb;stop-opacity:1;"
         offset="1"
         id="stop2" /></linearGradient><linearGradient
       xlink:href="#linearGradient1"
       id="linearGradient2"
       x1="0.5975911"
       y1="1.6867332"
       x2="6.8107424"
       y2="5.721601"
       gradientUnits="userSpaceOnUse" /></defs><g
     id="layer1"><rect
       style="fill:url(#linearGradient2);stroke-width:0.363024"
       id="rect1"
       width="7.4083333"
       height="7.4083333"
       x="0"
       y="0"
       ry="0.93381906" /><path
       fill="currentColor"
       d="M 2.9706912,5.5734057 C 2.7312904,5.3539328 2.6614098,4.8929336 2.7610493,4.5586759 c 0.1727088,0.2107046 0.4123754,0.2773967 0.6605444,0.3151269 0.3826162,0.057924 0.7588554,0.036402 1.1146352,-0.1392297 0.040653,-0.020194 0.078383,-0.04703 0.122756,-0.073866 0.033479,0.096983 0.042248,0.195028 0.030556,0.2949333 -0.02843,0.24312 -0.1487953,0.430974 -0.3409004,0.5733922 C 4.2718515,5.5861596 4.1908116,5.6369094 4.1116313,5.6905819 3.868245,5.8558508 3.8023499,6.0492846 3.8937527,6.3309326 l 0.00904,0.030291 A 0.63769359,0.63769359 0 0 1 3.6184816,6.1173052 0.69083473,0.69083473 0 0 1 3.5090109,5.7450516 C 3.5082175,5.6791564 3.5082175,5.6129959 3.4994401,5.5484294 3.4779185,5.3903345 3.4037863,5.3199226 3.2648223,5.3156712 a 0.27473966,0.27473966 0 0 0 -0.2856335,0.22399 q -0.00345,0.015411 -0.00877,0.033479 M 1.6049591,4.5031434 c 0,0 0.7083712,-0.3462144 1.4188682,-0.3462144 L 3.55949,2.4936115 c 0.019928,-0.080774 0.078649,-0.1355099 0.1445438,-0.1355099 0.066427,0 0.1248817,0.054735 0.1448096,0.1355099 L 4.384506,4.156929 c 0.8414898,0 1.4188683,0.3462144 1.4188683,0.3462144 L 4.5976019,1.2070646 C 4.56306,1.1098158 4.5046051,1.0471097 4.4262218,1.0471097 H 2.9821116 c -0.078649,0 -0.1344472,0.062707 -0.1713803,0.1599549 -0.00266,0.00638 -1.2057722,3.2960788 -1.2057722,3.2960788"
       id="path1"
       style="fill:#ffffff;stroke-width:0.265705" /></g></svg>
