<?xml version="1.0" encoding="UTF-8" standalone="no"?>
<!-- Created with Inkscape (http://www.inkscape.org/) -->

<svg
   width="28"
   height="28"
   viewBox="0 0 7.4083332 7.4083333"
   version="1.1"
   id="svg1"
   xml:space="preserve"
   xmlns="http://www.w3.org/2000/svg"
   xmlns:svg="http://www.w3.org/2000/svg"><defs
     id="defs1" /><g
     id="layer1"><rect
       style="fill:#333333;fill-opacity:1;stroke-width:0.363024"
       id="rect1"
       width="7.4083333"
       height="7.4083333"
       x="0"
       y="0"
       ry="1.6626534" /><path
       fill="currentColor"
       d="M 2.9737892,5.5655101 C 2.7353996,5.3469643 2.6658142,4.8879122 2.7650329,4.5550664 c 0.1719792,0.2098146 0.4106334,0.276225 0.6577542,0.3137958 0.381,0.057679 0.75565,0.036248 1.1099271,-0.1386416 0.040481,-0.020108 0.078052,-0.046831 0.1222375,-0.073554 0.033338,0.096573 0.042069,0.1942042 0.030427,0.2936875 C 4.6570687,5.1924476 4.5372121,5.3795081 4.3459184,5.5213247 4.2694534,5.5782097 4.1887559,5.6287456 4.10991,5.6821914 3.8675517,5.8467622 3.801935,6.0393789 3.8929517,6.3198372 l 0.009,0.030163 A 0.635,0.635 0 0 1 3.6188434,6.1071122 0.68791667,0.68791667 0 0 1 3.509835,5.736431 C 3.5090413,5.670814 3.5090413,5.6049331 3.500305,5.5406393 3.478874,5.3832122 3.405055,5.3130977 3.2666779,5.3088643 a 0.27357917,0.27357917 0 0 0 -0.284427,0.2230438 q -0.00344,0.015346 -0.00873,0.033338 M 1.6138262,4.4997685 c 0,0 0.7053788,-0.3447521 1.4128747,-0.3447521 l 0.5334,-1.6562917 c 0.019844,-0.080433 0.078317,-0.1349375 0.1439333,-0.1349375 0.066146,0 0.1243542,0.054504 0.1441979,0.1349375 l 0.5334,1.6562917 c 0.8379354,0 1.412875,0.3447521 1.412875,0.3447521 L 4.5938279,1.2176122 C 4.5594319,1.1207752 4.5012239,1.0583331 4.4231717,1.0583331 H 2.9851613 c -0.078317,0 -0.1338792,0.062442 -0.1706563,0.1592791 -0.00265,0.00635 -1.2006788,3.2821563 -1.2006788,3.2821563"
       id="path1"
       style="fill:#ffffff;stroke-width:0.264583" /></g></svg>
