<?xml version="1.0" encoding="UTF-8" standalone="no"?>
<!-- Created with Inkscape (http://www.inkscape.org/) -->

<svg
   width="28"
   height="28"
   viewBox="0 0 7.4083332 7.4083333"
   version="1.1"
   id="svg1"
   xml:space="preserve"
   xmlns="http://www.w3.org/2000/svg"
   xmlns:svg="http://www.w3.org/2000/svg"><defs
     id="defs1" /><g
     id="layer1"><rect
       style="fill:#333333;fill-opacity:1;stroke-width:0.363024"
       id="rect1"
       width="7.4083333"
       height="7.4083333"
       x="0"
       y="0"
       ry="1.6626534" /><path
       fill="currentColor"
       fill-rule="evenodd"
       d="m 2.5890019,4.4186509 q 0.018742,0 0.034833,0.00662 a 0.03946696,0.03946696 0 1 0 0.054242,0.052917 0.09657278,0.09657278 0 1 1 -0.089077,-0.059532 m 0,0.2612756 a 0.16514387,0.16514387 0 1 1 4.42e-4,-0.3300722 0.16514387,0.16514387 0 0 1 -4.408e-4,0.3300672 M 5.5532119,3.5993256 c -0.4683118,1.2408941 -1.525762,1.793652 -2.7728294,1.793652 -0.5891383,0 -1.0589935,-0.2028469 -1.3597356,-0.5406311 l 0.00217,-0.00133 c 0.086651,0.00441 0.1642614,0.00573 0.2427547,0.00573 0.0721,0 0.1424339,-6.615e-4 0.2074772,-0.00441 l 0.018517,-0.00133 c 0,0 0.020067,-0.00132 0.010142,-0.00154 a 1.8961779,1.8961779 0 0 0 0.4138511,-0.067468 q 0.03285,-0.00926 0.063058,-0.019844 a 0.04343571,0.04343571 0 0 0 -0.028225,-0.0818 C 2.1982533,4.7330633 1.9976111,4.7619474 1.7517698,4.7674595 A 4.8506876,4.8506876 0 0 1 1.3416662,4.7575378 1.3229148,1.3229148 0 0 1 1.2565588,4.6296561 L 1.2153256,4.5546912 C 1.0914124,4.3108339 1.0371725,4.0261867 1.0658358,3.7166246 h 3.607809 c 0.2963329,0 0.58561,-0.1106838 0.7231931,-0.2326125 C 5.1505558,3.283811 5.1750299,2.8084437 5.3317964,2.6272043 5.468057,2.7365653 5.68744,2.9667524 5.6497368,3.260219 5.8210549,3.1742296 6.1187103,3.1316758 6.3499999,3.265069 6.2047001,3.5486137 5.8854364,3.6332803 5.5531644,3.5993255 M 1.5557567,3.6290913 H 2.043471 V 3.1411562 H 1.5555367 Z m 0.5626801,0 H 2.6063719 V 3.1411562 H 2.1184368 Z m 0,-0.5629002 H 2.6063719 V 2.578256 H 2.1184368 Z m 0.5629,0.5629002 H 3.1692719 V 3.1411562 H 2.6813368 Z m 0,-0.5629002 H 3.1692719 V 2.578256 H 2.6813368 Z m 0.5629,0.5629002 H 3.732172 V 3.1411562 H 3.2442368 Z m 0,-0.5629002 H 3.732172 V 2.578256 H 3.2442368 Z m 0,-0.5629003 H 3.732172 V 2.0153557 H 3.2442368 Z M 3.8071377,3.6290913 H 4.295072 V 3.1411562 H 3.8071377 Z"
       id="path1"
       style="fill:#ffffff;stroke-width:0.220486" /></g></svg>
