<?xml version="1.0" encoding="UTF-8" standalone="no"?>
<!-- Created with Inkscape (http://www.inkscape.org/) -->

<svg
   width="28"
   height="28"
   viewBox="0 0 7.4083332 7.4083333"
   version="1.1"
   id="svg1"
   xml:space="preserve"
   xmlns:xlink="http://www.w3.org/1999/xlink"
   xmlns="http://www.w3.org/2000/svg"
   xmlns:svg="http://www.w3.org/2000/svg"><defs
     id="defs1"><linearGradient
       id="linearGradient1"><stop
         style="stop-color:#00255e;stop-opacity:1;"
         offset="0"
         id="stop1" /><stop
         style="stop-color:#0061eb;stop-opacity:1;"
         offset="1"
         id="stop2" /></linearGradient><linearGradient
       xlink:href="#linearGradient1"
       id="linearGradient2"
       x1="0.5975911"
       y1="1.6867332"
       x2="6.8107424"
       y2="5.721601"
       gradientUnits="userSpaceOnUse" /></defs><g
     id="layer1"><rect
       style="fill:url(#linearGradient2);stroke-width:0.363024"
       id="rect1"
       width="7.4083333"
       height="7.4083333"
       x="0"
       y="0"
       ry="0.93381906" /><path
       fill="currentColor"
       fill-rule="evenodd"
       d="m 2.5889811,4.418644 q 0.018741,0 0.034836,0.00662 A 0.03946667,0.03946667 0 1 0 2.6780561,4.47818 0.09657207,0.09657207 0 1 1 2.5889801,4.418649 m 0,0.2612737 A 0.16514265,0.16514265 0 1 1 2.5894217,4.3498563 0.16514265,0.16514265 0 0 1 2.5889807,4.679921 M 5.5531698,3.599328 C 5.0848614,4.840213 4.0274194,5.3929668 2.7803609,5.3929668 c -0.5891337,0 -1.0589855,-0.2028454 -1.3597262,-0.5406271 l 0.00217,-0.00133 c 0.086651,0.00441 0.1642611,0.00573 0.2427537,0.00573 0.072099,0 0.1424321,-6.615e-4 0.2074749,-0.00441 l 0.018525,-0.00133 c 0,0 0.020066,-0.00132 0.010142,-0.00154 a 1.8961639,1.8961639 0 0 0 0.413849,-0.067458 q 0.03285,-0.00926 0.063058,-0.019844 A 0.04343538,0.04343538 0 0 0 2.3503787,4.6803587 C 2.198245,4.7330549 1.9976043,4.761938 1.7517639,4.76745 A 4.8506517,4.8506517 0 0 1 1.3416633,4.7575284 1.322905,1.322905 0 0 1 1.2565566,4.6296477 L 1.2153236,4.5546837 C 1.0914114,4.3108277 1.0371727,4.0261826 1.0658358,3.7166229 H 4.673618 c 0.2963308,0 0.585606,-0.1106831 0.7231881,-0.2326108 C 5.1505662,3.2838118 5.1750399,2.808448 5.3318042,2.6272101 5.4680634,2.7365702 5.6874451,2.9667556 5.6497423,3.2602201 5.8210585,3.1742312 6.1187122,3.1316778 6.35,3.2650708 6.204701,3.5486134 5.8854399,3.6332793 5.5531702,3.5993248 M 1.5557923,3.6290901 H 2.043503 V 3.1411587 H 1.5555715 Z m 0.5626759,0 H 2.6063993 V 3.1411587 H 2.1184682 Z m 0,-0.562896 H 2.6063993 V 2.5782626 H 2.1184682 Z m 0.5628957,0.562896 H 3.1692954 V 3.1411587 H 2.6813639 Z m 0,-0.562896 H 3.1692954 V 2.5782626 H 2.6813639 Z m 0.5628962,0.562896 H 3.7321915 V 3.1411587 H 3.2442601 Z m 0,-0.562896 H 3.7321915 V 2.5782626 H 3.2442601 Z m 0,-0.562896 H 3.7321915 V 2.0153666 H 3.2442601 Z m 0.562896,1.125792 H 4.2950875 V 3.1411587 H 3.8071561 Z"
       id="path1"
       style="fill:#ffffff;stroke-width:0.220484" /></g></svg>
