<?xml version="1.0" encoding="UTF-8" standalone="no"?>
<!-- Created with Inkscape (http://www.inkscape.org/) -->

<svg
   width="28"
   height="28"
   viewBox="0 0 7.4083332 7.4083333"
   version="1.1"
   id="svg1"
   xml:space="preserve"
   xmlns="http://www.w3.org/2000/svg"
   xmlns:svg="http://www.w3.org/2000/svg"><defs
     id="defs1" /><g
     id="layer1"><rect
       style="fill:#333333;fill-opacity:1;stroke-width:0.363024"
       id="rect1"
       width="7.4083333"
       height="7.4083333"
       x="0"
       y="0"
       ry="1.6626534" /><path
       fill="currentColor"
       d="M 3.406786,6.33501 C 3.328122,6.3256251 3.2456146,6.313518 3.2234992,6.3080585 A 1.9841543,1.9841543 0 0 0 3.1253254,6.2873937 1.4881157,1.4881157 0 0 1 3.0135925,6.2612243 C 2.8422526,6.212119 2.8299755,6.2081033 2.7007985,6.1552786 2.5819562,6.1068351 2.362997,5.9936531 2.2880945,5.9421474 c -0.020499,-0.01422 -0.039683,-0.025673 -0.042616,-0.025673 -0.00293,0 -0.050842,-0.033734 -0.1065652,-0.074944 C 1.7846592,5.579333 1.5187003,5.2610412 1.3265264,4.8690058 1.2934612,4.8016646 1.2664646,4.7419374 1.2664646,4.7363154 c 0,-0.00556 -0.00594,-0.020875 -0.013228,-0.033772 -0.015002,-0.026824 -0.036374,-0.084616 -0.05361,-0.1443471 a 0.8267309,0.8267309 0 0 0 -0.025839,-0.074944 c -0.00806,-0.019018 -0.014551,-0.042164 -0.014551,-0.051504 0,-0.00938 -0.00806,-0.039893 -0.017898,-0.067995 -0.00984,-0.027906 -0.017777,-0.060844 -0.017777,-0.073169 0,-0.012235 -0.00773,-0.054565 -0.017281,-0.094081 -0.023229,-0.097555 -0.047947,-0.3502448 -0.047947,-0.4918636 0,-0.141454 0.024718,-0.394144 0.047947,-0.4916575 0.00951,-0.039555 0.017281,-0.082673 0.017281,-0.0959 0,-0.013265 0.00602,-0.039269 0.013228,-0.057874 0.00744,-0.018522 0.01695,-0.051797 0.021327,-0.073914 0.00451,-0.022116 0.014882,-0.060227 0.023274,-0.084946 l 0.024387,-0.071349 c 0.017898,-0.053452 0.034517,-0.09867 0.04245,-0.1162796 0.00451,-0.00984 0.022282,-0.050015 0.039562,-0.089287 0.027944,-0.063453 0.08784,-0.1831206 0.122852,-0.2457452 0.012776,-0.022943 0.017612,-0.030546 0.086724,-0.1385604 0.109501,-0.171464 0.2966313,-0.384802 0.4708235,-0.5368788 0.061385,-0.053617 0.2664552,-0.209287 0.2756731,-0.209287 0.00256,0 0.021906,-0.011618 0.043112,-0.025839 0.055678,-0.037284 0.1102861,-0.06895 0.1814678,-0.1046229 a 2.190837,2.190837 0 0 0 0.075894,-0.039397 c 0.011784,-0.00677 0.0339,-0.01695 0.1474475,-0.067792 0.025011,-0.01116 0.051963,-0.021327 0.1296312,-0.048489 0.017115,-0.00594 0.051504,-0.018559 0.07606,-0.027779 0.024718,-0.00917 0.053775,-0.016784 0.064611,-0.016784 0.010663,0 0.038735,-0.00745 0.062333,-0.016619 0.02356,-0.00922 0.066341,-0.019717 0.095239,-0.023274 0.028771,-0.00338 0.067003,-0.011453 0.084946,-0.017777 0.017777,-0.00609 0.066552,-0.014055 0.1083437,-0.017567 a 3.0175679,3.0175679 0 0 0 0.162907,-0.019221 c 0.1111126,-0.016288 0.3526835,-0.016288 0.4626388,0 a 3.100241,3.100241 0 0 0 0.1562932,0.018394 c 0.039397,0.00323 0.089618,0.011491 0.1117329,0.018274 0.022116,0.00662 0.060393,0.014882 0.084946,0.017897 0.024553,0.00323 0.06589,0.013431 0.09185,0.022778 0.026042,0.0095 0.055557,0.017115 0.065724,0.017115 0.010167,0 0.03117,0.00564 0.046503,0.012776 0.015499,0.00692 0.048278,0.018559 0.073004,0.025839 0.024553,0.00745 0.066679,0.022116 0.093834,0.032945 0.026952,0.010791 0.063122,0.025011 0.0804,0.031456 0.031832,0.011987 0.2670335,0.1296733 0.2990287,0.1497215 0.2596346,0.1619151 0.3931927,0.2676953 0.5727587,0.453214 0.2165212,0.2237961 0.3602478,0.4369266 0.506538,0.750671 0.010332,0.022154 0.026124,0.054933 0.035178,0.072673 0.00889,0.017943 0.016326,0.038938 0.016326,0.046714 0,0.00785 0.00744,0.031418 0.016619,0.052459 0.024883,0.057167 0.046172,0.1222324 0.056219,0.1719603 0.00496,0.024387 0.014175,0.054565 0.020462,0.067003 0.00632,0.0124 0.013724,0.043939 0.016657,0.069778 0.00286,0.025794 0.011453,0.068123 0.018725,0.093793 0.042164,0.1459593 0.063122,0.5759834 0.037615,0.7661728 -0.00757,0.056505 -0.016123,0.1248365 -0.019018,0.151788 -0.00489,0.046172 -0.029268,0.165511 -0.050098,0.245746 l -0.021492,0.084944 C 6.2077902,4.6054803 6.1076733,4.8384943 5.985441,5.054065 5.9369974,5.1396316 5.7745837,5.3710333 5.7439121,5.3981502 c -0.00278,0.00241 -0.016491,0.018604 -0.030381,0.035675 -0.013889,0.017281 -0.058453,0.065559 -0.098794,0.107227 C 5.4369488,5.7246278 5.2935524,5.8381377 5.0418129,5.994473 5.0119659,6.013032 4.7587814,6.1367122 4.7114509,6.1559332 c -0.024553,0.00984 -0.065559,0.026455 -0.091064,0.036788 -0.025342,0.010212 -0.053617,0.01877 -0.062498,0.018935 -0.00889,1.241e-4 -0.032283,0.00806 -0.052,0.017567 -0.01968,0.00951 -0.044729,0.017446 -0.055843,0.017612 -0.010994,1.722e-4 -0.043112,0.00794 -0.071387,0.017281 -0.02823,0.00951 -0.067499,0.019717 -0.087219,0.022733 -0.01968,0.00308 -0.061799,0.01149 -0.093793,0.018604 -0.031952,0.00714 -0.1285566,0.020996 -0.2144126,0.030839 A 2.4388562,2.4388562 0 0 1 3.406795,6.335013 M 3.6012001,5.8183066 c 0.0124,-0.00967 0.025177,-0.028937 0.028561,-0.04245 0.00744,-0.029884 1.2084324,-2.437616 1.2310441,-2.4677913 0.019056,-0.025508 0.02083,-0.066349 0.00338,-0.080731 -0.00917,-0.00773 -0.1241747,-0.010167 -0.4311399,-0.00967 -0.2302452,4.993e-4 -0.4238238,6.557e-4 -0.4301481,4.993e-4 -0.00934,-3.279e-4 -0.011287,-0.1541853 -0.010332,-0.8131724 6.565e-4,-0.4471371 -0.00143,-0.8170579 -0.00466,-0.8221842 -0.00323,-0.00519 -0.01583,-0.00938 -0.02811,-0.00938 -0.017281,0 -0.025342,0.00744 -0.03596,0.033404 -0.020048,0.048278 -0.075439,0.1579009 -0.3450771,0.681428 A 146.95142,146.95142 0 0 0 3.4111393,2.614399 C 3.3633575,2.7079021 3.2879564,2.8546878 3.2438504,2.9405439 A 361.73612,361.73612 0 0 0 2.8884386,3.6333038 C 2.6845253,4.0316222 2.6598479,4.0791182 2.6510841,4.0896175 c -0.01695,0.020499 -0.026169,0.067792 -0.016619,0.085567 0.00868,0.016288 0.026004,0.01695 0.4564792,0.016288 0.2460769,-2.97e-4 0.4490389,9.776e-4 0.4511475,0.00286 0.00564,0.00587 0.00353,1.5422663 -0.00226,1.5788908 -0.00384,0.024056 -0.00128,0.036788 0.00972,0.047782 0.019018,0.019056 0.024222,0.01889 0.05167,-0.00271 m 0,0"
       id="path1"
       style="fill:#ffffff;stroke-width:0.0413365" /></g></svg>
