<?xml version="1.0" encoding="UTF-8" standalone="no"?>
<!-- Created with Inkscape (http://www.inkscape.org/) -->

<svg
   width="28"
   height="28"
   viewBox="0 0 7.4083332 7.4083333"
   version="1.1"
   id="svg1"
   xml:space="preserve"
   xmlns="http://www.w3.org/2000/svg"
   xmlns:svg="http://www.w3.org/2000/svg"><defs
     id="defs1" /><g
     id="layer1"><rect
       style="fill:#333333;fill-opacity:1;stroke-width:0.363024"
       id="rect1"
       width="7.4083333"
       height="7.4083333"
       x="0"
       y="0"
       ry="1.6626534" /><path
       fill="currentColor"
       d="M 5.6390336,5.3373153 3.8734675,6.3168417 q -0.1813938,0.094325 -0.3627876,0 L 1.7692997,5.3373153 4.9255514,2.1568776 l 0.08465,-0.024185 c 0.072557,0 0.1136735,0.031442 0.1209292,0.096743 z M 3.0632418,2.2052492 1.9627858,4.0312801 2.4223172,1.1410724 c 0.00726,-0.065302 0.048372,-0.096743 0.1209292,-0.096743 0.048372,0 0.079813,0.014512 0.096743,0.060465 l 0.5199959,0.95534 z M 4.1516046,2.5099908 1.8418572,4.8294127 3.5953303,1.8545546 c 0.024186,-0.048372 0.060465,-0.070139 0.1088363,-0.070139 0.048372,0 0.079814,0.021768 0.096743,0.070139 z"
       id="path1"
       style="fill:#ffffff;stroke-width:0.241858" /></g></svg>
