<?xml version="1.0" encoding="UTF-8" standalone="no"?>
<!-- Created with Inkscape (http://www.inkscape.org/) -->

<svg
   width="28"
   height="28"
   viewBox="0 0 7.4083332 7.4083333"
   version="1.1"
   id="svg1"
   xml:space="preserve"
   xmlns="http://www.w3.org/2000/svg"
   xmlns:svg="http://www.w3.org/2000/svg"><defs
     id="defs1" /><g
     id="layer1"><rect
       style="fill:#333333;fill-opacity:1;stroke-width:0.363024"
       id="rect1"
       width="7.4083333"
       height="7.4083333"
       x="0"
       y="0"
       ry="1.6626534" /><path
       fill="currentColor"
       d="m 2.6458334,2.6458334 0.142876,-0.103364 a 0.17638889,0.17638889 0 0 0 -0.319264,0.103364 z M 3.7041667,5.9972223 A 2.2930556,2.2930556 0 0 1 1.411112,3.7041667 H 1.0583333 A 2.6458333,2.6458333 0 0 0 3.7041667,6.35 Z M 5.9972227,3.7041667 A 2.2930556,2.2930556 0 0 1 3.7041667,5.9972223 V 6.35 A 2.6458333,2.6458333 0 0 0 6.35,3.7041667 Z M 3.7041667,1.4111111 a 2.2930556,2.2930556 0 0 1 2.293056,2.2930556 H 6.35 A 2.6458333,2.6458333 0 0 0 3.7041667,1.0583334 Z m 0,-0.3527777 A 2.6458333,2.6458333 0 0 0 1.0583333,3.7041667 H 1.411112 A 2.2930556,2.2930556 0 0 1 3.7041667,1.4111111 Z M 2.8222227,5.2916667 V 2.6458334 H 2.4694454 V 5.2916667 Z M 2.5029587,2.7491973 4.7960147,5.9241972 5.081764,5.7174695 2.7887094,2.5424695 Z M 4.586112,2.4694445 V 4.5861111 H 4.9388894 V 2.4694445 Z"
       id="path1"
       style="fill:#ffffff;stroke-width:0.352777" /></g></svg>
