<?xml version="1.0" encoding="UTF-8" standalone="no"?>
<!-- Created with Inkscape (http://www.inkscape.org/) -->

<svg
   width="28"
   height="28"
   viewBox="0 0 7.4083332 7.4083333"
   version="1.1"
   id="svg1"
   xml:space="preserve"
   xmlns:xlink="http://www.w3.org/1999/xlink"
   xmlns="http://www.w3.org/2000/svg"
   xmlns:svg="http://www.w3.org/2000/svg"><defs
     id="defs1"><linearGradient
       id="linearGradient1"><stop
         style="stop-color:#00255e;stop-opacity:1;"
         offset="0"
         id="stop1" /><stop
         style="stop-color:#0061eb;stop-opacity:1;"
         offset="1"
         id="stop2" /></linearGradient><linearGradient
       xlink:href="#linearGradient1"
       id="linearGradient2"
       x1="0.5975911"
       y1="1.6867332"
       x2="6.8107424"
       y2="5.721601"
       gradientUnits="userSpaceOnUse" /></defs><g
     id="layer1"><rect
       style="fill:url(#linearGradient2);stroke-width:0.363024"
       id="rect1"
       width="7.4083333"
       height="7.4083333"
       x="0"
       y="0"
       ry="0.93381906" /><path
       fill="currentColor"
       d="M 2.1178323,3.2862248 H 1.8200493 L 1.6574613,4.121663 h 0.264374 q 0.263037,0 0.391994,-0.099112 Q 2.4423412,3.923439 2.4873315,3.691583 2.5305395,3.4690816 2.4481315,3.377542 2.3657235,3.286002 2.1178313,3.286225 M 2.6635057,4.2111982 C 2.5813207,4.2900425 2.4822085,4.3492872 2.3744103,4.384923 q -0.159248,0.051672 -0.405358,0.051895 h -0.373063 l -0.103121,0.5305286 h -0.434535 l 0.387985,-1.9960535 h 0.836107 q 0.3772944,0 0.550351,0.1982245 0.1732793,0.197779 0.1042349,0.5528012 A 0.89089644,0.89089644 0 0 1 2.8407942,3.9895878 0.89089644,0.89089644 0 0 1 2.6637286,4.2111983 M 3.9334787,4.4368178 4.1049763,3.5537167 Q 4.1343763,3.4029325 4.0833713,3.3483651 4.0328133,3.2933522 3.8666608,3.2933522 H 3.5221069 l -0.222056,1.143911 H 2.8681889 L 3.2561743,2.4407641 H 3.6875909 L 3.5844697,2.9715158 h 0.3841991 q 0.3630402,0 0.5004611,0.1265072 0.1374208,0.1265073 0.083076,0.4098124 L 4.3718002,4.4368176 Z m 2.3971798,-0.714499 c -0.017372,0.093544 -0.049891,0.1837473 -0.096217,0.2672689 A 0.89089644,0.89089644 0 0 1 6.0573763,4.2111981 C 5.9749683,4.2898197 5.8760789,4.3492871 5.7680577,4.3849229 Q 5.60881,4.4365946 5.3622543,4.4368177 H 4.9900824 L 4.8867384,4.9675692 H 4.4517582 L 4.8399663,2.9715157 h 0.8356609 q 0.3772946,0 0.5503513,0.1982244 0.1732793,0.1973337 0.1044576,0.5523559 M 5.5117022,3.2862248 H 5.2141428 L 5.0513315,4.121663 H 5.315705 q 0.2634827,0 0.3919945,-0.099112 Q 5.8362113,3.923439 5.8814243,3.691583 5.9246323,3.4690816 5.8420023,3.377542 5.7593723,3.286002 5.5117025,3.286225"
       id="path1"
       style="fill:#ffffff;stroke-width:0.222724" /></g></svg>
