<?xml version="1.0" encoding="UTF-8" standalone="no"?>
<!-- Created with Inkscape (http://www.inkscape.org/) -->

<svg
   width="28"
   height="28"
   viewBox="0 0 7.4083332 7.4083333"
   version="1.1"
   id="svg1"
   xml:space="preserve"
   xmlns="http://www.w3.org/2000/svg"
   xmlns:svg="http://www.w3.org/2000/svg"><defs
     id="defs1" /><g
     id="layer1"><rect
       style="fill:#333333;fill-opacity:1;stroke-width:0.363024"
       id="rect1"
       width="7.4083333"
       height="7.4083333"
       x="0"
       y="0"
       ry="1.6626534" /><path
       fill="currentColor"
       d="M 2.1178347,3.2862246 H 1.8200524 L 1.6574637,4.1216629 h 0.264374 q 0.2630364,0 0.3919939,-0.099112 Q 2.4423438,3.9234384 2.4873342,3.6915826 2.5305434,3.4690811 2.448132,3.3775415 2.3657205,3.2860019 2.1178321,3.2862246 M 2.6635061,4.211198 C 2.5813219,4.290042 2.4822085,4.349287 2.3744103,4.3849228 Q 2.2151627,4.4365948 1.9690521,4.4368178 H 1.5959893 L 1.4928681,4.9673467 H 1.0583333 L 1.4463187,2.971293 h 0.8361065 q 0.3772945,0 0.550351,0.1982245 0.1732795,0.197779 0.1042349,0.5528013 A 0.89089651,0.89089651 0 0 1 2.8407943,3.9895875 0.89089651,0.89089651 0 0 1 2.6637292,4.211198 M 3.9334789,4.4368176 4.1049764,3.5537164 Q 4.1343802,3.4029322 4.083376,3.3483648 4.032818,3.293352 3.8666651,3.293352 H 3.5221112 L 3.3000549,4.4372631 H 2.8681929 L 3.2561782,2.440764 H 3.6875949 L 3.5844737,2.9715156 h 0.3841989 q 0.3630405,0 0.5004613,0.1265073 0.1374209,0.1265073 0.083076,0.4098124 L 4.3718042,4.4368177 Z M 6.3306593,3.7223186 C 6.3132843,3.8158626 6.2807663,3.906066 6.2344423,3.9895875 A 0.89089651,0.89089651 0 0 1 6.0573766,4.211198 C 5.9749651,4.2898197 5.876079,4.349287 5.7680577,4.3849229 Q 5.60881,4.4365946 5.3622542,4.4368177 H 4.9900828 L 4.8867385,4.9675693 h -0.43498 L 4.839966,2.9715156 h 0.8356613 q 0.3772945,0 0.5503509,0.1982244 0.1732796,0.1973337 0.104458,0.5523559 M 5.5117026,3.2862248 h -0.29756 L 5.0513316,4.121663 h 0.2643732 q 0.2634826,0 0.3919947,-0.099112 0.1285122,-0.099112 0.1737249,-0.3309681 0.043209,-0.2225014 -0.039421,-0.314041 -0.08263,-0.09154 -0.3302998,-0.091317"
       id="path1"
       style="fill:#ffffff;stroke-width:0.222724" /></g></svg>
