<?xml version="1.0" encoding="UTF-8" standalone="no"?>
<!-- Created with Inkscape (http://www.inkscape.org/) -->

<svg
   width="28"
   height="28"
   viewBox="0 0 7.4083332 7.4083333"
   version="1.1"
   id="svg1"
   xml:space="preserve"
   xmlns="http://www.w3.org/2000/svg"
   xmlns:svg="http://www.w3.org/2000/svg"><defs
     id="defs1"><clipPath
       id="akarIconsPythonFill0"><path
         fill="#ffffff"
         d="M 0,0 H 24 V 24 H 0 Z"
         id="path3" /></clipPath></defs><g
     id="layer1"><rect
       style="fill:#333333;fill-opacity:1;stroke-width:0.363024"
       id="rect1"
       width="7.4083333"
       height="7.4083333"
       x="0"
       y="0"
       ry="1.6626534" /><g
       fill="none"
       id="g3"
       transform="matrix(0.22048611,0,0,0.22048611,1.0583333,1.0583333)"
       style="fill:#ffffff"><g
         fill="currentColor"
         clip-path="url(#akarIconsPythonFill0)"
         id="g2"
         style="fill:#ffffff"><path
           d="M 11.914,0 C 5.82,0 6.2,2.656 6.2,2.656 l 0.007,2.752 h 5.814 V 6.234 H 3.9 c 0,0 -3.9,-0.445 -3.9,5.735 0,6.18 3.403,5.96 3.403,5.96 h 2.03 v -2.867 c 0,0 -0.109,-3.42 3.35,-3.42 h 5.766 c 0,0 3.24,0.052 3.24,-3.148 V 3.202 C 17.789,3.202 18.28,0 11.913,0 M 8.708,1.85 c 0.578,0 1.046,0.47 1.046,1.052 0,0.581 -0.468,1.051 -1.046,1.051 C 8.13,3.953 7.662,3.483 7.662,2.902 7.662,2.32 8.129,1.85 8.708,1.85"
           id="path1"
           style="fill:#ffffff" /><path
           d="m 12.087,24 c 6.092,0 5.712,-2.656 5.712,-2.656 l -0.007,-2.752 h -5.814 v -0.826 h 8.123 c 0,0 3.9,0.445 3.9,-5.735 0,-6.18 -3.404,-5.96 -3.404,-5.96 h -2.03 v 2.867 c 0,0 0.109,3.42 -3.35,3.42 H 9.452 c 0,0 -3.24,-0.052 -3.24,3.148 v 5.292 c 0,0 -0.492,3.202 5.875,3.202 m 3.206,-1.85 c -0.579,0 -1.046,-0.47 -1.046,-1.052 0,-0.581 0.467,-1.051 1.046,-1.051 0.578,0 1.046,0.47 1.046,1.051 0,0.582 -0.468,1.052 -1.046,1.052"
           id="path2"
           style="fill:#ffffff" /></g><defs
         id="defs3" /></g></g></svg>
