<?xml version="1.0" encoding="UTF-8" standalone="no"?>
<!-- Created with Inkscape (http://www.inkscape.org/) -->

<svg
   width="28"
   height="28"
   viewBox="0 0 7.4083332 7.4083333"
   version="1.1"
   id="svg1"
   xml:space="preserve"
   xmlns:xlink="http://www.w3.org/1999/xlink"
   xmlns="http://www.w3.org/2000/svg"
   xmlns:svg="http://www.w3.org/2000/svg"><defs
     id="defs1"><linearGradient
       id="linearGradient1"><stop
         style="stop-color:#00255e;stop-opacity:1;"
         offset="0"
         id="stop1" /><stop
         style="stop-color:#0061eb;stop-opacity:1;"
         offset="1"
         id="stop2" /></linearGradient><linearGradient
       xlink:href="#linearGradient1"
       id="linearGradient2"
       x1="0.5975911"
       y1="1.6867332"
       x2="6.8107424"
       y2="5.721601"
       gradientUnits="userSpaceOnUse" /><clipPath
       id="akarIconsReactFill0"><path
         fill="#ffffff"
         d="M 0,0 H 24 V 24 H 0 Z"
         id="path3" /></clipPath></defs><g
     id="layer1"><rect
       style="fill:url(#linearGradient2);stroke-width:0.363024"
       id="rect1"
       width="7.4083333"
       height="7.4083333"
       x="0"
       y="0"
       ry="0.93381906" /><g
       fill="none"
       id="g3"
       transform="matrix(0.22048611,0,0,0.22048611,1.0583333,1.1274557)"
       style="fill:#ffffff"><g
         fill="currentColor"
         clip-path="url(#akarIconsReactFill0)"
         id="g2"
         style="fill:#ffffff"><path
           d="M 24,11.689 C 24,10.099 22.009,8.592 18.956,7.658 19.661,4.547 19.348,2.071 17.968,1.278 A 2.15,2.15 0 0 0 16.872,1.005 v 1.09 c 0.225,0 0.406,0.045 0.558,0.128 0.665,0.382 0.954,1.834 0.729,3.703 -0.054,0.46 -0.142,0.944 -0.25,1.438 A 24,24 0 0 0 14.803,6.831 24,24 0 0 0 12.768,4.385 C 14.363,2.903 15.86,2.091 16.878,2.091 V 1 C 15.532,1 13.771,1.959 11.99,3.622 10.21,1.97 8.448,1.02 7.103,1.02 v 1.09 c 1.013,0 2.515,0.808 4.11,2.28 -0.685,0.72 -1.37,1.536 -2.021,2.441 A 23,23 0 0 0 6.081,7.369 Q 5.913,6.635 5.826,5.951 C 5.596,4.081 5.88,2.629 6.541,2.243 6.687,2.155 6.878,2.115 7.103,2.115 V 1.025 C 6.693,1.025 6.32,1.113 5.998,1.298 4.623,2.091 4.315,4.561 5.024,7.663 1.981,8.603 0,10.104 0,11.689 c 0,1.59 1.991,3.097 5.044,4.03 -0.705,3.112 -0.392,5.588 0.988,6.38 0.318,0.186 0.69,0.274 1.1,0.274 1.346,0 3.107,-0.959 4.888,-2.622 1.78,1.653 3.541,2.602 4.887,2.602 a 2.2,2.2 0 0 0 1.105,-0.274 c 1.375,-0.792 1.683,-3.262 0.974,-6.364 C 22.019,14.781 24,13.274 24,11.689 M 17.63,8.426 a 22,22 0 0 1 -0.66,1.932 26,26 0 0 0 -1.345,-2.319 q 1.044,0.153 2.006,0.387 m -2.24,5.21 A 26,26 0 0 1 14.212,15.505 25.5,25.5 0 0 1 9.8,15.51 25.5,25.5 0 0 1 7.599,11.704 26,26 0 0 1 9.791,7.884 25.5,25.5 0 0 1 14.202,7.878 q 0.61,0.875 1.184,1.86 0.557,0.961 1.018,1.946 a 27,27 0 0 1 -1.013,1.952 M 16.97,13 c 0.264,0.656 0.49,1.311 0.675,1.947 -0.64,0.157 -1.316,0.289 -2.015,0.391 A 27,27 0 0 0 16.97,13 m -4.96,5.22 q -0.684,-0.706 -1.36,-1.566 c 0.44,0.02 0.89,0.035 1.345,0.035 q 0.691,0.001 1.36,-0.035 C 12.915,17.227 12.46,17.75 12.01,18.22 M 8.37,15.338 A 22,22 0 0 1 6.364,14.952 c 0.181,-0.631 0.406,-1.282 0.66,-1.932 0.201,0.39 0.412,0.782 0.642,1.174 q 0.345,0.587 0.704,1.144 m 3.615,-10.18 q 0.684,0.706 1.36,1.566 C 12.905,6.704 12.455,6.689 12,6.689 Q 11.309,6.688 10.64,6.724 C 11.08,6.151 11.535,5.628 11.985,5.158 M 8.365,8.04 A 27,27 0 0 0 7.025,10.373 21,21 0 0 1 6.35,8.426 C 6.99,8.274 7.666,8.142 8.365,8.04 M 3.938,14.164 C 2.206,13.426 1.086,12.457 1.086,11.689 c 0,-0.768 1.12,-1.742 2.852,-2.475 0.42,-0.181 0.88,-0.343 1.355,-0.494 0.279,0.958 0.646,1.956 1.1,2.979 a 23,23 0 0 0 -1.085,2.964 15,15 0 0 1 -1.37,-0.499 m 2.632,6.99 C 5.905,20.774 5.616,19.32 5.841,17.452 c 0.054,-0.46 0.142,-0.945 0.25,-1.439 0.958,0.235 2.005,0.416 3.106,0.534 a 24,24 0 0 0 2.035,2.446 C 9.637,20.475 8.14,21.287 7.122,21.287 A 1.2,1.2 0 0 1 6.57,21.155 m 11.604,-3.727 c 0.23,1.869 -0.054,3.322 -0.715,3.708 -0.146,0.088 -0.337,0.127 -0.562,0.127 -1.013,0 -2.515,-0.807 -4.11,-2.28 a 23,23 0 0 0 2.021,-2.44 23,23 0 0 0 3.111,-0.538 q 0.171,0.74 0.255,1.423 m 1.883,-3.263 c -0.42,0.181 -0.88,0.343 -1.355,0.494 a 23.5,23.5 0 0 0 -1.1,-2.979 c 0.45,-1.017 0.811,-2.01 1.085,-2.964 q 0.728,0.227 1.375,0.499 c 1.732,0.738 2.852,1.707 2.852,2.475 -0.005,0.768 -1.125,1.742 -2.857,2.475"
           id="path1"
           style="fill:#ffffff" /><path
           d="m 11.995,13.925 a 2.236,2.236 0 1 0 0,-4.472 2.236,2.236 0 0 0 0,4.472"
           id="path2"
           style="fill:#ffffff" /></g><defs
         id="defs3" /></g></g></svg>
