<?xml version="1.0" encoding="UTF-8" standalone="no"?>
<!-- Created with Inkscape (http://www.inkscape.org/) -->

<svg
   width="28"
   height="28"
   viewBox="0 0 7.4083332 7.4083333"
   version="1.1"
   id="svg1"
   xml:space="preserve"
   xmlns="http://www.w3.org/2000/svg"
   xmlns:svg="http://www.w3.org/2000/svg"><defs
     id="defs1" /><g
     id="layer1"><rect
       style="fill:#333333;fill-opacity:1;stroke-width:0.363024"
       id="rect1"
       width="7.4083333"
       height="7.4083333"
       x="0"
       y="0"
       ry="1.6626534" /><path
       fill="currentColor"
       d="m 3.7041705,3.2389923 c 0.2535078,0 0.460252,0.2067442 0.460252,0.4651744 0,0.246124 -0.2067442,0.4553295 -0.460252,0.4553295 -0.2535079,0 -0.4602521,-0.2092055 -0.4602521,-0.4553295 0,-0.2584302 0.2067442,-0.4651744 0.4602521,-0.4651744 M 2.5646161,5.6731589 C 2.7196747,5.7666859 3.0593258,5.6239339 3.4506626,5.254748 3.3226784,5.1095348 3.1971547,4.9520155 3.0790151,4.7871124 A 5.6608524,5.6608524 0 0 1 2.4883175,4.6985078 C 2.3627947,5.2252132 2.4095545,5.5870155 2.5646155,5.6731589 M 2.7393634,4.260407 2.6679864,4.1348837 c -0.02707,0.071376 -0.054149,0.142752 -0.071377,0.2116667 0.066456,0.014768 0.1402911,0.027073 0.2165888,0.03938 z M 4.3490144,4.0733528 4.5483754,3.7041667 4.3490144,3.3349807 C 4.2751824,3.2045349 4.1964182,3.0888567 4.1250424,2.9731784 c -0.132907,-0.00739 -0.2731982,-0.00739 -0.4208726,-0.00739 -0.1476744,0 -0.2879646,0 -0.4208716,0.00739 -0.071377,0.115676 -0.1501358,0.2313542 -0.223973,0.3618 l -0.1993609,0.369186 0.1993609,0.369186 c 0.073833,0.1304458 0.1525963,0.246124 0.223973,0.3618023 0.132907,0.00739 0.2731972,0.00739 0.4208716,0.00739 0.1476744,0 0.2879656,0 0.4208726,-0.00739 0.071377,-0.1156759 0.1501348,-0.2313542 0.223972,-0.3617999 M 3.7041695,2.4193993 c -0.046763,0.054147 -0.095988,0.1107559 -0.145213,0.1772093 h 0.290426 C 3.8001545,2.5301547 3.7509335,2.4735466 3.7041695,2.4193993 m 0,2.5695348 c 0.046763,-0.054147 0.095989,-0.1107558 0.145213,-0.1772093 h -0.290426 c 0.049228,0.066454 0.098449,0.1230621 0.145213,0.1772093 M 4.8412625,1.7351746 C 4.6886653,1.6416476 4.3490141,1.7843996 3.9576774,2.1535854 4.0856616,2.2987986 4.2111853,2.4563179 4.3293248,2.621221 4.5311462,2.6409112 4.7305071,2.6704461 4.9200225,2.7098256 5.0455453,2.1831202 4.9987855,1.8213179 4.8412595,1.7351745 M 4.668973,3.1479264 4.74035,3.2734497 C 4.76742,3.2020737 4.794499,3.1306977 4.811727,3.061783 4.745271,3.047015 4.6714367,3.03471 4.5951381,3.022403 Z m 0.35688,-1.7351742 c 0.3618018,0.2067441 0.4011813,0.7506781 0.2485851,1.3856781 0.6251544,0.184593 1.0755618,0.4897868 1.0755618,0.9057364 0,0.4159495 -0.4504074,0.7211433 -1.0755618,0.9057364 C 5.4270343,5.244903 5.3876548,5.788837 5.025853,5.9955812 4.6665116,6.2023254 4.1767246,5.9660462 3.7041665,5.5156394 3.2316084,5.9660463 2.7418215,6.2023254 2.3800196,5.9955812 2.0206785,5.7888371 1.9812989,5.2449031 2.1338952,4.6099032 1.5087408,4.4253101 1.0583334,4.1201163 1.0583334,3.7041667 c 0,-0.4159495 0.4504074,-0.7211434 1.0755618,-0.9057364 C 1.9812989,2.1634303 2.0206785,1.6194964 2.3800198,1.4127522 2.7418217,1.206008 3.2316086,1.4422872 3.7041667,1.892694 4.1767248,1.4422871 4.6665118,1.206008 5.0258532,1.4127522 m -0.071373,2.2914145 c 0.083684,0.184593 0.15752,0.3691861 0.2190512,0.5562403 C 5.6903918,4.1053489 5.9808179,3.8838372 5.9808179,3.7041667 5.9808179,3.5244962 5.6903918,3.3029846 5.1735314,3.1479265 5.1119964,3.3349807 5.038163,3.5195737 4.9544802,3.7041667 m -2.5006193,0 C 2.370177,3.5195737 2.2963408,3.3349807 2.2348105,3.1479265 1.7179501,3.3029846 1.4275231,3.5244962 1.4275231,3.7041667 c 0,0.1796705 0.290427,0.4011822 0.8072874,0.5562403 C 2.2963455,4.0733528 2.370178,3.8887597 2.4538608,3.7041667 M 4.6689769,4.260407 4.5951349,4.3859302 C 4.6714329,4.3736242 4.7452707,4.3613182 4.8117237,4.3465512 4.7944957,4.2776372 4.7674167,4.2062605 4.7403467,4.1348845 Z M 3.9576783,5.254748 C 4.3490151,5.6239341 4.6886662,5.766686 4.8412634,5.6731589 4.9987825,5.5870159 5.0455462,5.2252132 4.9200264,4.6985078 4.7305111,4.7378878 4.5311501,4.7674218 4.3293288,4.7871128 4.2111892,4.9520159 4.0856655,5.1095352 3.9576813,5.2547484 M 2.739367,3.1479269 2.813199,3.0224036 c -0.076298,0.012306 -0.1501348,0.024612 -0.2165888,0.039379 0.017228,0.068914 0.044307,0.1402907 0.071377,0.2116667 z M 3.4506656,2.1535858 C 3.0593286,1.7843994 2.7196775,1.6416475 2.5646189,1.7351746 2.4095612,1.8213176 2.3627975,2.1831203 2.4883209,2.7098257 A 5.6608524,5.6608524 0 0 1 3.0790186,2.6212211 C 3.1971581,2.456318 3.3226818,2.2987987 3.450666,2.1535855"
       id="path1"
       style="fill:#ffffff;stroke-width:0.246124" /></g></svg>
