<?xml version="1.0" encoding="UTF-8" standalone="no"?>
<!-- Created with Inkscape (http://www.inkscape.org/) -->

<svg
   width="28"
   height="28"
   viewBox="0 0 7.4083332 7.4083333"
   version="1.1"
   id="svg1"
   xml:space="preserve"
   xmlns:xlink="http://www.w3.org/1999/xlink"
   xmlns="http://www.w3.org/2000/svg"
   xmlns:svg="http://www.w3.org/2000/svg"><defs
     id="defs1"><linearGradient
       id="linearGradient1"><stop
         style="stop-color:#00255e;stop-opacity:1;"
         offset="0"
         id="stop1" /><stop
         style="stop-color:#0061eb;stop-opacity:1;"
         offset="1"
         id="stop2" /></linearGradient><linearGradient
       xlink:href="#linearGradient1"
       id="linearGradient2"
       x1="0.5975911"
       y1="1.6867332"
       x2="6.8107424"
       y2="5.721601"
       gradientUnits="userSpaceOnUse" /></defs><g
     id="layer1"><rect
       style="fill:url(#linearGradient2);stroke-width:0.363024"
       id="rect1"
       width="7.4083333"
       height="7.4083333"
       x="0"
       y="0"
       ry="0.93381906" /><path
       fill="currentColor"
       d="M 4.7258378,4.6972201 C 4.9176576,4.6806839 5.0660423,4.5120147 5.0565616,4.3104937 5.0461988,4.1089727 4.8810574,3.9471385 4.6797569,3.9471385 h -0.01345 A 0.37702515,0.37702515 0 0 0 4.3029522,4.3371721 c 0.00662,0.1056112 0.049829,0.1915994 0.1089184,0.2542163 C 4.1808049,5.0407319 3.8339859,5.3710147 3.3083555,5.6486023 2.9549219,5.8333666 2.581645,5.9030391 2.21829,5.853651 1.9144649,5.8106567 1.6767846,5.6750602 1.5312661,5.4570029 1.3134297,5.1264996 1.2935858,4.7699793 1.475042,4.4132386 1.6073316,4.155274 1.8055458,3.9672024 1.9378354,3.8745997 A 2.2048254,2.2048254 0 0 1 1.8452327,3.5343951 C 0.86695097,4.2350887 0.96660937,5.1928649 1.2638196,5.6455155 c 0.2213648,0.3302829 0.6740158,0.5415051 1.1694398,0.5415051 0.1322895,0 0.2711935,-0.0097 0.4063493,-0.042773 C 3.6988292,5.9791056 4.3494732,5.4638379 4.7227502,4.704055 Z M 5.9049784,3.8712925 C 5.3934589,3.2698161 4.6398496,2.9395333 3.7808496,2.9395333 H 3.6684035 C 3.6126214,2.8173859 3.4838595,2.7413195 3.3381206,2.7413195 h -0.00992 c -0.207915,0 -0.3699697,0.1785908 -0.3631347,0.3865059 0.00662,0.1979933 0.1750631,0.3633552 0.3765842,0.3633552 h 0.016316 A 0.3726155,0.3726155 0 0 0 3.6884674,3.2598944 h 0.1223678 c 0.5090941,0 0.991069,0.1486052 1.4304907,0.4392012 0.3366768,0.2215849 0.5781053,0.512181 0.713702,0.8592205 0.1186196,0.2839815 0.1122257,0.561569 -0.00992,0.7930757 -0.1885126,0.3631347 -0.505787,0.5549545 -0.9251448,0.5549545 -0.2643586,0 -0.5218821,-0.082681 -0.6541717,-0.1419907 -0.079374,0.065704 -0.2116632,0.1748426 -0.3073527,0.2409874 0.290596,0.1318486 0.5847197,0.207915 0.8687013,0.207915 0.6442499,0 1.1231381,-0.3631347 1.3050361,-0.7134814 C 6.4301679,5.1033489 6.4138523,4.4361688 5.9080653,3.864678 Z M 2.4892628,4.8158397 c 0.00662,0.1982138 0.1748426,0.3633552 0.3765842,0.3633552 H 2.879076 A 0.3726155,0.3726155 0 0 0 3.2424312,4.7893818 c 0,-0.1984343 -0.1717559,-0.3631348 -0.373277,-0.3631348 h -0.013229 c -0.013229,0 -0.033072,0 -0.049829,0.00639 C 2.5320364,3.9700687 2.4162834,3.4742034 2.4594977,2.9395333 2.4859556,2.5364912 2.6182451,2.1861444 2.8557048,1.8955484 3.054139,1.6477261 3.427416,1.5251377 3.6818529,1.5189642 4.3953344,1.5055145 4.6927654,2.3945004 4.7156955,2.7479339 l 0.3302829,0.099217 C 4.9699122,1.7632589 4.2963377,1.1950754 3.6520877,1.1950754 c -0.605004,0 -1.1628249,0.4394217 -1.3877168,1.0836716 -0.3071325,0.8587796 -0.1056116,1.6849277 0.2711932,2.3457138 -0.033072,0.042994 -0.052916,0.1188401 -0.046301,0.1913789"
       id="path1"
       style="fill:#ffffff;stroke-width:0.220482" /></g></svg>
