<?xml version="1.0" encoding="UTF-8" standalone="no"?>
<!-- Created with Inkscape (http://www.inkscape.org/) -->

<svg
   width="28"
   height="28"
   viewBox="0 0 7.4083332 7.4083333"
   version="1.1"
   id="svg1"
   xml:space="preserve"
   xmlns:xlink="http://www.w3.org/1999/xlink"
   xmlns="http://www.w3.org/2000/svg"
   xmlns:svg="http://www.w3.org/2000/svg"><defs
     id="defs1"><linearGradient
       id="linearGradient1"><stop
         style="stop-color:#00255e;stop-opacity:1;"
         offset="0"
         id="stop1" /><stop
         style="stop-color:#0061eb;stop-opacity:1;"
         offset="1"
         id="stop2" /></linearGradient><linearGradient
       xlink:href="#linearGradient1"
       id="linearGradient2"
       x1="0.5975911"
       y1="1.6867332"
       x2="6.8107424"
       y2="5.721601"
       gradientUnits="userSpaceOnUse" /></defs><g
     id="layer1"><rect
       style="fill:url(#linearGradient2);stroke-width:0.363024"
       id="rect1"
       width="7.4083333"
       height="7.4083333"
       x="0"
       y="0"
       ry="0.93381906" /><path
       fill="currentColor"
       d="m 3.5540118,4.720317 c -0.0025,0.00496 -0.005,0.00893 0,0 m 2.059886,-0.719344 a 1.0844727,1.0844727 0 0 0 -0.479563,0.1116222 c -0.04878,-0.098393 -0.09922,-0.1843835 -0.107488,-0.2488763 -0.0099,-0.075242 -0.02067,-0.1198906 -0.0091,-0.2091884 0.01157,-0.089298 0.06367,-0.2158032 0.06284,-0.2248984 -8.09e-4,-0.00909 -0.01157,-0.054571 -0.118236,-0.055398 -0.106662,-8.237e-4 -0.19844,0.020671 -0.209106,0.048783 a 1.0170033,1.0170033 0 0 0 -0.04382,0.1579249 c -0.01901,0.096739 -0.213239,0.4423551 -0.323208,0.6226046 -0.03638,-0.070281 -0.06697,-0.1322932 -0.07359,-0.181903 -0.0099,-0.075242 -0.02067,-0.1198909 -0.0091,-0.2091887 0.01157,-0.089298 0.06367,-0.2158031 0.06284,-0.2248982 -8.09e-4,-0.00909 -0.01157,-0.054571 -0.118154,-0.055398 -0.106578,-8.236e-4 -0.19844,0.020671 -0.209189,0.048783 -0.01075,0.028112 -0.02232,0.094259 -0.04382,0.1579248 -0.02149,0.063666 -0.280214,0.6391412 -0.347931,0.7887976 -0.03472,0.076069 -0.06449,0.1372541 -0.08599,0.1785958 -0.0033,0.00661 -0.0058,0.010748 -0.0074,0.014057 0.0025,-0.00414 0.0041,-0.00827 0.0041,-0.00661 -0.01819,0.035554 -0.02894,0.055398 -0.02894,0.055398 v 8.253e-4 c -0.01405,0.026459 -0.02976,0.050436 -0.03721,0.050436 -0.005,0 -0.01571,-0.069453 0.0025,-0.1645391 0.03886,-0.2000933 0.130639,-0.5109824 0.129812,-0.5217312 -8.09e-4,-0.00579 0.01736,-0.059532 -0.06036,-0.088471 -0.07524,-0.027286 -0.102527,0.018191 -0.109141,0.018191 -0.0066,0 -0.01158,0.016537 -0.01158,0.016537 0,0 0.08351,-0.3505767 -0.160323,-0.3505767 -0.152137,0 -0.363806,0.1670202 -0.467821,0.3183304 -0.06532,0.035553 -0.206709,0.1124478 -0.355539,0.1943042 -0.05705,0.031419 -0.115756,0.063666 -0.171154,0.094259 -0.0041,-0.00414 -0.0074,-0.00827 -0.01157,-0.012402 -0.295924,-0.31585 -0.842294,-0.5390946 -0.819143,-0.9632594 0.0083,-0.1546176 0.06201,-0.5605921 1.050655,-1.0533839 0.810296,-0.403494 1.458119,-0.2926985 1.569659,-0.046302 0.160402,0.3513949 -0.346363,1.005419 -1.18783,1.0996779 -0.320728,0.035554 -0.489319,-0.088471 -0.531487,-0.1347736 -0.04382,-0.048783 -0.05044,-0.051264 -0.06697,-0.042168 -0.02728,0.014882 -0.0099,0.057878 0,0.08351 0.0248,0.06532 0.128159,0.1810762 0.304192,0.2389544 0.154617,0.050437 0.530661,0.078549 0.985335,-0.097566 0.510798,-0.1967864 0.908422,-0.744976 0.791838,-1.2038677 C 4.2541728,1.7387564 3.4809198,1.5857924 2.7497518,1.8454176 2.3140948,2.0000351 1.8429658,2.2431237 1.5040478,2.5598004 1.1014629,2.9368358 1.0370528,3.265088 1.0635113,3.4023421 c 0.094176,0.487004 0.7653985,0.8045077 1.0340365,1.0393277 -0.01323,0.00744 -0.02563,0.014057 -0.03721,0.02067 -0.134691,0.066974 -0.6464174,0.334867 -0.7744932,0.6176436 -0.1446958,0.3208106 0.02398,0.5506697 0.1346909,0.5820896 0.3455323,0.095912 0.6993343,-0.076896 0.8894223,-0.360499 0.190089,-0.2836027 0.16702,-0.6540237 0.07938,-0.8226973 -8.1e-4,-0.00248 -0.0025,-0.00414 -0.0033,-0.00661 0.03473,-0.02067 0.07028,-0.041341 0.105834,-0.062012 0.06854,-0.040515 0.135518,-0.077722 0.194223,-0.1099685 -0.03307,0.089298 -0.05705,0.1967861 -0.06945,0.3522302 -0.01488,0.1819033 0.06036,0.41755 0.157925,0.5101553 0.04299,0.040515 0.095,0.041342 0.127249,0.041342 0.114104,0 0.165367,-0.094259 0.222336,-0.2067079 0.07028,-0.1372545 0.132293,-0.2968328 0.132293,-0.2968328 0,0 -0.07772,0.4316064 0.134773,0.4316064 0.07764,0 0.155362,-0.1000466 0.190172,-0.1513104 v 8.283e-4 c 0,0 0.0017,-0.0033 0.0058,-0.00992 0.0083,-0.012402 0.0124,-0.019843 0.0124,-0.019843 v -0.00248 c 0.03142,-0.053745 0.100046,-0.1769426 0.203318,-0.3803434 0.133946,-0.2629324 0.262023,-0.5911846 0.262023,-0.5911846 a 1.6619322,1.6619322 0 0 0 0.05126,0.2133225 c 0.02315,0.078549 0.07193,0.1645395 0.110796,0.2480497 -0.03142,0.042995 -0.05044,0.0678 -0.05044,0.0678 a 0.00248049,0.00248049 0 0 0 8.09e-4,0.00165 c -0.0248,0.033073 -0.05292,0.068627 -0.08186,0.1033538 -0.105752,0.1256786 -0.231513,0.2695473 -0.248049,0.3108891 -0.01985,0.048783 -0.01488,0.085164 0.02315,0.1132759 0.02811,0.021497 0.07772,0.024804 0.12973,0.020673 0.09509,-0.00661 0.162059,-0.029766 0.194305,-0.044649 a 0.67965586,0.67965586 0 0 0 0.166938,-0.087645 c 0.103354,-0.076068 0.166193,-0.1852099 0.160405,-0.3290787 -0.0033,-0.079376 -0.02894,-0.1587516 -0.06036,-0.2331666 0.0091,-0.013229 0.01902,-0.027286 0.02811,-0.041342 0.163648,-0.2389577 0.290153,-0.5012288 0.290153,-0.5012288 a 1.6619322,1.6619322 0 0 0 0.05126,0.2133226 c 0.01985,0.066973 0.05862,0.1405613 0.09418,0.2124959 -0.153708,0.1248515 -0.248794,0.269547 -0.281868,0.3646327 -0.06119,0.1761151 -0.01323,0.2554907 0.0769,0.273681 0.04051,0.00827 0.09839,-0.010748 0.141388,-0.028939 a 0.65733141,0.65733141 0 0 0 0.178513,-0.091778 c 0.103354,-0.076069 0.203318,-0.18273 0.196704,-0.3274255 -0.0025,-0.06532 -0.02067,-0.1306392 -0.04465,-0.1934786 0.129812,-0.054571 0.298403,-0.084337 0.513379,-0.059532 0.46038,0.053744 0.550505,0.3414814 0.533142,0.461372 -0.01736,0.1198906 -0.114102,0.1868639 -0.146349,0.2067079 -0.03224,0.019845 -0.04217,0.027286 -0.03969,0.042169 0.0041,0.021497 0.01902,0.02067 0.0463,0.01571 0.03803,-0.00661 0.241352,-0.097566 0.250448,-0.3199839 0.013227,-0.2811222 -0.257066,-0.5903575 -0.735884,-0.5878771 z m -3.548597,1.1964257 c -0.152055,0.1661932 -0.365378,0.2290321 -0.457073,0.1761155 -0.09839,-0.057217 -0.05953,-0.3017938 0.128076,-0.4789013 0.114103,-0.107488 0.261197,-0.2067079 0.358763,-0.2678936 0.02232,-0.013229 0.05457,-0.033073 0.09426,-0.057051 0.0066,-0.00414 0.0099,-0.00579 0.0099,-0.00579 0.0074,-0.00496 0.01571,-0.00909 0.02398,-0.014057 0.06854,0.2513568 0.0025,0.4729475 -0.157925,0.6474094 z m 1.110931,-0.7557242 c -0.05292,0.1298125 -0.164457,0.4605452 -0.232257,0.4431817 -0.05788,-0.014883 -0.09343,-0.2670666 -0.01157,-0.5151162 0.04134,-0.1248516 0.128986,-0.2736813 0.181076,-0.3315595 0.08343,-0.093432 0.175206,-0.1231981 0.196703,-0.085991 0.02894,0.048783 -0.100873,0.4084549 -0.133946,0.4894846 m 0.917783,0.4382205 c -0.02232,0.011575 -0.04299,0.019018 -0.05292,0.013229 -0.0074,-0.00414 0.0091,-0.019845 0.0091,-0.019845 0,0 0.114929,-0.1231978 0.160405,-0.1794226 0.02646,-0.033073 0.05705,-0.071934 0.09004,-0.1149297 0,0.00414 8.09e-4,0.00827 8.09e-4,0.013229 -0.0011,0.1480029 -0.143207,0.2480499 -0.2077,0.2877378 z m 0.707598,-0.1612314 c -0.01654,-0.011575 -0.01405,-0.050437 0.04134,-0.1711544 0.02149,-0.047129 0.07102,-0.126505 0.157098,-0.2025738 a 0.29931316,0.29931316 0 0 1 0.01571,0.089298 c -8.09e-4,0.1860369 -0.133947,0.2554907 -0.214067,0.2844301 z"
       id="path1"
       style="fill:#ffffff;stroke-width:0.00826831" /></g></svg>
