<?xml version="1.0" encoding="UTF-8" standalone="no"?>
<!-- Created with Inkscape (http://www.inkscape.org/) -->

<svg
   width="28"
   height="28"
   viewBox="0 0 7.4083332 7.4083333"
   version="1.1"
   id="svg1"
   xml:space="preserve"
   xmlns="http://www.w3.org/2000/svg"
   xmlns:svg="http://www.w3.org/2000/svg"><defs
     id="defs1" /><g
     id="layer1"><rect
       style="fill:#333333;fill-opacity:1;stroke-width:0.363024"
       id="rect1"
       width="7.4083333"
       height="7.4083333"
       x="0"
       y="0"
       ry="1.6626534" /><path
       fill="currentColor"
       d="m 3.5540174,4.7202957 c -0.00248,0.005 -0.00496,0.0089 0,0 m 2.0598878,-0.719344 a 1.0844735,1.0844735 0 0 0 -0.4795629,0.111622 c -0.048783,-0.09839 -0.09922,-0.184384 -0.1074883,-0.248876 -0.00992,-0.07524 -0.020671,-0.119891 -0.0091,-0.209189 0.011576,-0.0893 0.063666,-0.215804 0.062839,-0.224899 -8.362e-4,-0.0091 -0.011576,-0.05457 -0.118237,-0.0554 -0.1066611,-8.37e-4 -0.1984396,0.02067 -0.2091058,0.04878 a 1.017004,1.017004 0 0 0 -0.043822,0.157925 c -0.019017,0.09674 -0.2132402,0.442355 -0.3232086,0.622604 -0.036381,-0.07028 -0.066974,-0.132293 -0.073588,-0.181903 -0.00992,-0.07524 -0.02067,-0.11989 -0.00909,-0.209188 0.011576,-0.0893 0.063666,-0.215803 0.062839,-0.224898 -8.283e-4,-0.0091 -0.011576,-0.05457 -0.1181545,-0.0554 -0.1065787,-8.36e-4 -0.1984398,0.02067 -0.2091887,0.04878 -0.010749,0.02811 -0.022324,0.09426 -0.043822,0.157925 -0.021498,0.06367 -0.2802135,0.639141 -0.3479311,0.788798 -0.034727,0.07607 -0.064493,0.137254 -0.085991,0.178596 -0.00331,0.0066 -0.00579,0.01075 -0.00744,0.01405 0.00248,-0.0041 0.00413,-0.0083 0.00413,-0.0066 -0.01819,0.03555 -0.028939,0.0554 -0.028939,0.0554 v 8.37e-4 c -0.014056,0.02646 -0.029766,0.05044 -0.037207,0.05044 -0.00496,0 -0.01571,-0.06945 0.00248,-0.164539 0.038861,-0.200094 0.1306395,-0.510983 0.1298127,-0.521732 -8.283e-4,-0.0058 0.017363,-0.05953 -0.060359,-0.08847 -0.075242,-0.02728 -0.1025273,0.01819 -0.1091419,0.01819 -0.00661,0 -0.011576,0.01654 -0.011576,0.01654 0,0 0.08351,-0.350577 -0.1603228,-0.350577 -0.1521373,0 -0.3638064,0.16702 -0.4678218,0.318331 -0.06532,0.03555 -0.2067081,0.112448 -0.3555379,0.194304 -0.057051,0.03142 -0.1157567,0.06367 -0.1711545,0.09426 -0.00413,-0.0041 -0.00744,-0.0083 -0.011576,-0.0124 -0.2959234,-0.31585 -0.842294,-0.539095 -0.8191428,-0.96326 0.00827,-0.154618 0.062012,-0.560592 1.0506559,-1.053384 0.810296,-0.403495 1.4581192,-0.292699 1.569659,-0.0463 0.1604053,0.351404 -0.3463602,1.005428 -1.1878277,1.099687 -0.3207283,0.03555 -0.4893194,-0.08847 -0.5314878,-0.134774 -0.043822,-0.04878 -0.050437,-0.05126 -0.066973,-0.04217 -0.027286,0.01488 -0.00992,0.05788 0,0.08351 0.024805,0.06532 0.1281587,0.181076 0.3041916,0.238955 0.1546176,0.05044 0.530661,0.07855 0.9853363,-0.09757 0.510817,-0.196786 0.9084407,-0.744976 0.7918575,-1.203868 -0.1187332,-0.466333 -0.891987,-0.619297 -1.623155,-0.359672 -0.435658,0.154618 -0.9067871,0.397707 -1.2457057,0.714383 -0.4025847,0.377036 -0.466995,0.705289 -0.4405365,0.842543 0.094176,0.487004 0.765399,0.804508 1.0340366,1.039328 -0.01323,0.0074 -0.025631,0.01406 -0.037207,0.02067 -0.134691,0.06697 -0.6464176,0.334867 -0.7744938,0.617644 -0.1446957,0.320811 0.023977,0.55067 0.134691,0.58209 0.3455332,0.09591 0.6993349,-0.0769 0.8894235,-0.360499 0.1900889,-0.283604 0.1670202,-0.654025 0.079376,-0.822698 -8.362e-4,-0.0025 -0.00248,-0.0041 -0.00331,-0.0066 0.034727,-0.02067 0.070281,-0.04134 0.1058346,-0.06201 0.068544,-0.04051 0.1355179,-0.07772 0.194223,-0.109968 -0.033073,0.0893 -0.057051,0.196786 -0.069454,0.35223 -0.014883,0.181904 0.060359,0.417551 0.157925,0.510156 0.042995,0.04051 0.095003,0.04134 0.1272495,0.04134 0.1141028,0 0.1653665,-0.09426 0.2223352,-0.206708 0.070281,-0.137255 0.1322933,-0.296833 0.1322933,-0.296833 0,0 -0.077722,0.431606 0.1347736,0.431606 0.07764,0 0.1553619,-0.100046 0.1901715,-0.15131 v 8.36e-4 c 0,0 0.00165,-0.0033 0.00579,-0.0099 0.00827,-0.0124 0.012403,-0.01984 0.012403,-0.01984 v -0.0025 c 0.03142,-0.05374 0.1000468,-0.176942 0.2033181,-0.380343 0.133947,-0.262932 0.2620233,-0.591185 0.2620233,-0.591185 a 1.6619334,1.6619334 0 0 0 0.051264,0.213323 c 0.023151,0.07855 0.071935,0.16454 0.1107955,0.24805 -0.03142,0.04299 -0.050437,0.0678 -0.050437,0.0678 a 0.0024805,0.0024805 0 0 0 8.283e-4,0.0016 c -0.024805,0.03307 -0.052917,0.06863 -0.081856,0.103354 -0.1057518,0.125679 -0.2315131,0.269547 -0.2480497,0.310889 -0.019844,0.04878 -0.014883,0.08516 0.023151,0.113276 0.028112,0.0215 0.077722,0.02481 0.1297301,0.02067 0.095086,-0.0066 0.1620592,-0.02976 0.1943057,-0.04465 a 0.67965633,0.67965633 0 0 0 0.1669375,-0.08765 c 0.1033539,-0.07607 0.1661932,-0.18521 0.1604052,-0.329079 -0.00331,-0.07938 -0.028939,-0.158752 -0.060358,-0.233167 0.00909,-0.01323 0.019017,-0.02728 0.028112,-0.04134 0.1636302,-0.238955 0.2901357,-0.501226 0.2901357,-0.501226 a 1.6619334,1.6619334 0 0 0 0.051263,0.213323 c 0.019844,0.06697 0.058623,0.140561 0.094176,0.212496 -0.1537083,0.124851 -0.2487937,0.269547 -0.2818672,0.364633 -0.061185,0.176115 -0.01323,0.255491 0.076896,0.273681 0.040515,0.0083 0.098393,-0.01075 0.141388,-0.02894 a 0.65733185,0.65733185 0 0 0 0.1785134,-0.09178 c 0.1033538,-0.07607 0.203318,-0.18273 0.1967032,-0.327426 -0.00248,-0.06532 -0.020671,-0.130639 -0.044649,-0.193479 0.1298128,-0.05457 0.2984042,-0.08434 0.5133803,-0.05953 0.4603805,0.05374 0.5505052,0.341482 0.5331418,0.461373 -0.017363,0.11989 -0.1141029,0.186864 -0.1463495,0.206708 -0.032246,0.01984 -0.042168,0.02729 -0.039688,0.04217 0.00413,0.0215 0.019018,0.02067 0.046303,0.01571 0.038034,-0.0066 0.2413524,-0.09757 0.2504474,-0.319984 0.01323,-0.281123 -0.2570622,-0.590358 -0.7358809,-0.587878 z m -3.5485997,1.196426 c -0.1520545,0.166194 -0.3653774,0.229033 -0.457073,0.176115 -0.098393,-0.05722 -0.059532,-0.301793 0.1280762,-0.478901 0.1141029,-0.107488 0.2611966,-0.206708 0.3587626,-0.267894 0.022325,-0.01323 0.054571,-0.03307 0.094259,-0.05705 0.00661,-0.0041 0.00992,-0.0058 0.00992,-0.0058 0.00744,-0.005 0.015709,-0.0091 0.02398,-0.01406 0.068544,0.251357 0.00248,0.472948 -0.1579251,0.647409 z m 1.1109322,-0.755725 c -0.052917,0.129813 -0.1644571,0.460546 -0.2322574,0.443182 -0.057878,-0.01488 -0.093432,-0.267066 -0.011576,-0.515116 0.041342,-0.124852 0.128986,-0.273682 0.1810763,-0.33156 0.083427,-0.09343 0.175206,-0.123198 0.1967036,-0.08599 0.028939,0.04878 -0.1008736,0.408455 -0.1339469,0.489484 m 0.917784,0.438221 c -0.022324,0.01158 -0.042995,0.01902 -0.052917,0.01323 -0.00744,-0.0041 0.00909,-0.01984 0.00909,-0.01984 0,0 0.1149296,-0.123198 0.1604056,-0.179423 0.026458,-0.03307 0.057051,-0.07193 0.090042,-0.114929 0,0.0041 8.283e-4,0.0083 8.283e-4,0.01323 -0.00107,0.148003 -0.1432075,0.24805 -0.2077005,0.287738 z m 0.7076032,-0.161232 c -0.016536,-0.01158 -0.014056,-0.05044 0.041342,-0.171154 0.021498,-0.04713 0.071025,-0.126505 0.1570981,-0.202574 a 0.29931337,0.29931337 0 0 1 0.015709,0.0893 c -8.361e-4,0.186037 -0.1339469,0.255491 -0.2140668,0.28443 z"
       id="path1"
       style="fill:#ffffff;stroke-width:0.00826831" /></g></svg>
