<?xml version="1.0" encoding="UTF-8" standalone="no"?>
<!-- Created with Inkscape (http://www.inkscape.org/) -->

<svg
   width="28"
   height="28"
   viewBox="0 0 7.4083332 7.4083333"
   version="1.1"
   id="svg1"
   xml:space="preserve"
   xmlns:xlink="http://www.w3.org/1999/xlink"
   xmlns="http://www.w3.org/2000/svg"
   xmlns:svg="http://www.w3.org/2000/svg"><defs
     id="defs1"><linearGradient
       id="linearGradient1"><stop
         style="stop-color:#00255e;stop-opacity:1;"
         offset="0"
         id="stop1" /><stop
         style="stop-color:#0061eb;stop-opacity:1;"
         offset="1"
         id="stop2" /></linearGradient><linearGradient
       xlink:href="#linearGradient1"
       id="linearGradient2"
       x1="0.5975911"
       y1="1.6867332"
       x2="6.8107424"
       y2="5.721601"
       gradientUnits="userSpaceOnUse" /></defs><g
     id="layer1"><rect
       style="fill:url(#linearGradient2);stroke-width:0.363024"
       id="rect1"
       width="7.4083333"
       height="7.4083333"
       x="0"
       y="0"
       ry="0.93381906" /><path
       fill="currentColor"
       d="M 3.7041667,2.1166667 C 2.9977292,2.1166667 2.5585209,2.4685625 2.38125,3.175 2.6458334,2.8231042 2.9553959,2.6908125 3.3072917,2.778125 3.508375,2.828396 3.6538959,2.9739167 3.8126459,3.1353125 4.0719375,3.3998959 4.365625,3.7041667 5.0270834,3.7041667 5.7335209,3.7041667 6.1727292,3.3522709 6.35,2.6458334 6.0854167,2.9977292 5.7758542,3.1300209 5.4239584,3.0427084 5.222875,2.9924375 5.08,2.8469167 4.9186042,2.6855209 4.6593125,2.4209375 4.365625,2.1166667 3.7041667,2.1166667 m -1.3229167,1.5875 c -0.7064375,0 -1.1456459,0.3518958 -1.3229167,1.0583333 0.2645834,-0.3518958 0.5741459,-0.4841875 0.9260417,-0.396875 0.2010834,0.050271 0.3439584,0.1957917 0.5053542,0.3571875 0.2592917,0.2645834 0.5529792,0.5688542 1.2144375,0.5688542 0.7064375,0 1.1456458,-0.3518958 1.3229167,-1.0583333 C 4.7625,4.5852292 4.4529375,4.7175209 4.1010417,4.6302084 3.8999584,4.5799374 3.7570834,4.4344167 3.5956875,4.2730209 3.3363959,4.0084375 3.0427084,3.7041667 2.38125,3.7041667"
       id="path1"
       style="fill:#ffffff;stroke-width:0.264583" /></g></svg>
