<?xml version="1.0" encoding="UTF-8" standalone="no"?>
<!-- Created with Inkscape (http://www.inkscape.org/) -->

<svg
   width="28"
   height="28"
   viewBox="0 0 7.4083332 7.4083333"
   version="1.1"
   id="svg1"
   xml:space="preserve"
   xmlns="http://www.w3.org/2000/svg"
   xmlns:svg="http://www.w3.org/2000/svg"><defs
     id="defs1" /><g
     id="layer1"><rect
       style="fill:#333333;fill-opacity:1;stroke-width:0.363024"
       id="rect1"
       width="7.4083333"
       height="7.4083333"
       x="0"
       y="0"
       ry="1.6626534" /><path
       fill="currentColor"
       d="m 3.7041665,2.1166667 c -0.7064375,0 -1.1456458,0.3518958 -1.322917,1.0583333 0.2645837,-0.3518958 0.5741462,-0.4841875 0.926042,-0.396875 0.2010833,0.050271 0.3466042,0.1957917 0.5053542,0.3571875 0.2592916,0.2645834 0.5529791,0.5688542 1.2144375,0.5688542 0.7064375,0 1.1456458,-0.3518958 1.3229166,-1.0583333 C 6.0854165,2.9977292 5.775854,3.1300209 5.4239582,3.0427084 5.2228748,2.9924375 5.0799998,2.8469167 4.918604,2.6855209 4.6593123,2.4209375 4.3656248,2.1166667 3.7041665,2.1166667 m -1.322917,1.5875 c -0.706437,0 -1.145645,0.3518958 -1.322916,1.0583333 0.264583,-0.3518958 0.574146,-0.4841875 0.926041,-0.396875 0.201084,0.050271 0.343959,0.1957917 0.5053545,0.3571875 0.2592917,0.2645834 0.5529792,0.5688542 1.2144375,0.5688542 0.7064375,0 1.1456458,-0.3518958 1.3229167,-1.0583333 C 4.7624998,4.5852292 4.4529373,4.7175209 4.1010415,4.6302084 3.8999582,4.5799375 3.7570832,4.4344167 3.5956873,4.2730209 3.3363957,4.0084375 3.0427082,3.7041667 2.3812495,3.7041667"
       id="path1"
       style="fill:#ffffff;stroke-width:0.264583" /></g></svg>
