<?xml version="1.0" encoding="UTF-8" standalone="no"?>
<!-- Created with Inkscape (http://www.inkscape.org/) -->

<svg
   width="28"
   height="28"
   viewBox="0 0 7.4083332 7.4083333"
   version="1.1"
   id="svg1"
   xml:space="preserve"
   xmlns:xlink="http://www.w3.org/1999/xlink"
   xmlns="http://www.w3.org/2000/svg"
   xmlns:svg="http://www.w3.org/2000/svg"><defs
     id="defs1"><linearGradient
       id="linearGradient1"><stop
         style="stop-color:#00255e;stop-opacity:1;"
         offset="0"
         id="stop1" /><stop
         style="stop-color:#0061eb;stop-opacity:1;"
         offset="1"
         id="stop2" /></linearGradient><linearGradient
       xlink:href="#linearGradient1"
       id="linearGradient2"
       x1="0.5975911"
       y1="1.6867332"
       x2="6.8107424"
       y2="5.721601"
       gradientUnits="userSpaceOnUse" /></defs><g
     id="layer1"><rect
       style="fill:url(#linearGradient2);stroke-width:0.363024"
       id="rect1"
       width="7.4083333"
       height="7.4083333"
       x="0"
       y="0"
       ry="0.93381906" /><path
       fill="currentColor"
       d="m 3.7251183,1.0618524 c -1.0433932,0 -2.0225194,0.6124265 -2.4723883,1.5877722 H 2.5191673 V 2.7895 C 2.1297851,2.744135 2.1638088,2.9444966 2.2205149,3.1561996 L 3.0522052,5.2278646 3.6608513,3.8026498 3.3811009,3.1335172 C 3.2790305,2.9558379 3.2790305,2.7554762 2.8594042,2.7743782 l 0.00756,-0.1285335 H 4.7231466 V 2.7932803 C 4.5076633,2.8046208 4.2430344,2.7403545 4.3829097,3.1826625 L 5.1352113,5.1446954 5.547276,3.9992311 C 5.6833708,3.519119 5.5548345,3.0579089 5.3960596,2.6042597 5.3091104,2.301827 5.3469141,2.0485395 5.7476378,1.9464684 5.1389917,1.3302614 4.4244941,1.0580719 3.732679,1.0580719 Z M 6.2504323,2.8726689 5.0482618,5.9952878 C 5.3809381,5.7079766 5.721175,5.6059056 6.13702,4.8120194 6.4129901,4.154228 6.3865271,3.5418015 6.2504323,2.8726689 M 1.1279765,2.9218149 C 1.0107835,3.8442352 1.0221255,4.1126442 1.3132166,4.864946 1.6912577,5.5870042 1.9861297,5.7382208 2.4019746,6.0217515 L 1.1279765,2.9255947 Z M 3.7742636,4.089961 2.8820867,6.2296733 C 3.5096349,6.4073526 4.0691356,6.3846701 4.579491,6.188089 Z"
       id="path1"
       style="fill:#ffffff;stroke-width:0.378041" /></g></svg>
