<?xml version="1.0" encoding="UTF-8" standalone="no"?>
<!-- Created with Inkscape (http://www.inkscape.org/) -->

<svg
   width="28"
   height="28"
   viewBox="0 0 7.4083332 7.4083333"
   version="1.1"
   id="svg1"
   xml:space="preserve"
   xmlns="http://www.w3.org/2000/svg"
   xmlns:svg="http://www.w3.org/2000/svg"><defs
     id="defs1" /><g
     id="layer1"><rect
       style="fill:#333333;fill-opacity:1;stroke-width:0.363024"
       id="rect1"
       width="7.4083333"
       height="7.4083333"
       x="0"
       y="0"
       ry="1.6626534" /><path
       fill="currentColor"
       d="M 1.6312377,2.7802437 2.7141089,5.7461378 C 1.9566323,5.3791351 1.4349341,4.602455 1.4349341,3.7041516 c 0,-0.329662 0.070413,-0.6411878 0.1963036,-0.9239079 m 3.6049479,0.8097532 c 0,-0.2805866 -0.1002849,-0.4747565 -0.1867017,-0.6262518 -0.115222,-0.186702 -0.2229755,-0.3456654 -0.2229755,-0.5323674 0,-0.2091058 0.1578964,-0.4032763 0.380872,-0.4032763 0.0096,0 0.019203,0.00109 0.029874,0.00213 C 4.8329118,1.6600266 4.2952096,1.4338503 3.7041651,1.4338503 c -0.7926836,0 -1.4904151,0.4064769 -1.8968921,1.0231267 0.053343,0.00213 0.1034862,0.00322 0.1461611,0.00322 0.2368444,0 0.6049141,-0.028805 0.6049141,-0.028805 0.1226898,-0.00747 0.1365591,0.1728326 0.014938,0.1867019 0,0 -0.1226902,0.013867 -0.2592492,0.021337 L 3.1408602,5.0974968 3.6380209,3.6081482 3.2848872,2.6394322 C 3.1621975,2.6319637 3.0469757,2.6180955 3.0469757,2.6180955 2.924286,2.6106269 2.9392219,2.4239256 3.0608429,2.4313934 c 0,0 0.3744702,0.028805 0.5974457,0.028805 0.2368456,0 0.6049145,-0.028805 0.6049145,-0.028805 0.1226906,-0.00747 0.1365597,0.1728327 0.014937,0.1867021 0,0 -0.1226896,0.013867 -0.2592483,0.021337 L 4.8393133,5.0793598 5.0654901,4.3229503 C 5.1615076,4.0092909 5.2361885,3.7841817 5.2361885,3.5900117 M 3.7436392,3.9026041 3.0629774,5.881645 c 0.203772,0.059745 0.4182122,0.092817 0.6411877,0.092817 0.2645838,0 0.5174317,-0.045876 0.7532092,-0.1290911 -0.00642,-0.0096 -0.011735,-0.020271 -0.016001,-0.030937 z M 5.6960086,2.6148943 c 0.0096,0.072547 0.014937,0.1493613 0.014937,0.2336438 0,0.2304436 -0.042673,0.4886257 -0.1728326,0.8129537 L 4.8446487,5.6661373 c 0.675328,-0.3936741 1.1287467,-1.1244791 1.1287467,-1.9619709 0,-0.3947412 -0.1002859,-0.7660111 -0.2773858,-1.0892721 M 6.35,3.7041664 c 0,1.4594759 -1.1874243,2.6458337 -2.6458329,2.6458337 -1.4594765,0 -2.6458338,-1.1874248 -2.6458338,-2.6458337 0,-1.4594759 1.1863573,-2.6458332 2.6458338,-2.6458332 1.4584086,0 2.6458329,1.1863573 2.6458329,2.6458332 m -0.1216226,0 c 0,-1.3922629 -1.133015,-2.5242101 -2.5242103,-2.5242101 -1.3922635,0 -2.5242107,1.1319472 -2.5242107,2.5242101 0,1.3922634 1.1330142,2.5242105 2.5242107,2.5242105 1.3922624,0 2.5242103,-1.1319471 2.5242103,-2.5242105"
       id="path1"
       style="fill:#ffffff;stroke-width:0.0106686" /></g></svg>
